<?xml version="1.0" encoding="utf-8"?>
<svg version="1.0" id="Layer_1" xmlns="http://www.w3.org/2000/svg" xmlns:xlink="http://www.w3.org/1999/xlink" x="0px" y="0px"
	 viewBox="0 0 343.5 188" style="enable-background:new 0 0 343.5 188;" xml:space="preserve">
<style type="text/css">
	.st0{fill:#E30613;stroke:#000000;stroke-width:12;stroke-linecap:round;stroke-linejoin:round;stroke-miterlimit:10;}
	.st1{fill:#E30613;}
	.st2{fill:#E3E3E3;}
	.st3{fill:#FFFFFF;}
</style>
<path d="M343.5,165.2c0.3-1.5-8.5-22.9-8.8-23.4c-0.5-0.8-10.5-4.1-13.8-4.7c-2.6-0.4-6.2-0.3-9.1-0.3c-4.3,0-251.8,0-260.2,0
	c-2.2,0-4.4,0.1-6.3,0.4c-3.2,0.6-12.9,3.9-13.4,4.6c-1,1.8-1.4,3.6-2,5.4c-2.1,5.6-4.2,11.1-6.3,16.7c-0.2,0.4-0.5,0.9-0.4,1.3
	c0.9,4.3,1.1,9.1,1.7,13.5c0.1,1.1,0.3,4.6,1.2,5.1c0.4,0.2,0.9,0.4,1.4,0.6c0.3,0.1,12.9,3.5,17.1,3.6c0.6,0,276.2,0,278,0
	c4.1-0.1,17.2-3.2,18.4-4.4c0.6-0.5,1.8-12,2.4-17.2C343.4,166.1,343.4,165.4,343.5,165.2z"/>
<path class="st0" d="M326.5,100.9c0.3-4.9-8.5-76.2-8.8-78.1c-0.5-2.6-10.5-13.8-13.8-15.7c-2.6-1.5-6.2-1.1-9.1-1.1
	C290.4,6,42.9,6,34.5,6c-2.2,0-4.4,0.2-6.3,1.4c-3.2,2-12.9,13-13.4,15.5c-1,5.9-1.4,12-2,18c-2.1,18.5-4.2,37.1-6.3,55.6
	c-0.2,1.4-0.5,3-0.4,4.5c0.9,14.4,1.1,30.2,1.7,45c0.1,3.7,0.3,15.2,1.2,17c0.4,0.7,0.9,1.4,1.4,2c0.3,0.3,12.9,11.7,17.1,12
	c0.6,0,276.2,0.1,278,0c4.1-0.4,17.2-10.8,18.4-14.7c0.6-1.7,1.8-40.1,2.4-57.3C326.4,103.9,326.4,101.6,326.5,100.9z"/>
<path class="st1" d="M326.5,100.9c0.3-4.9-8.5-76.2-8.8-78.1c-0.5-2.6-10.5-13.8-13.8-15.7c-2.6-1.5-6.2-1.1-9.1-1.1
	C290.4,6,42.9,6,34.5,6c-2.2,0-4.4,0.2-6.3,1.4c-3.2,2-12.9,13-13.4,15.5c-1,5.9-1.4,12-2,18c-2.1,18.5-4.2,37.1-6.3,55.6
	c-0.2,1.4-0.5,3-0.4,4.5c0.9,14.4,1.1,30.2,1.7,45c0.1,3.7,0.3,15.2,1.2,17c0.4,0.7,0.9,1.4,1.4,2c0.3,0.3,12.9,11.7,17.1,12
	c0.6,0,276.2,0.1,278,0c4.1-0.4,17.2-10.8,18.4-14.7c0.6-1.7,1.8-40.1,2.4-57.3C326.4,103.9,326.4,101.6,326.5,100.9z"/>
<path class="st2" d="M326.3,105c0-1.1,0.1-3.4,0.1-4c0.3-4.9-8.5-76.2-8.8-78.1c-0.5-2.6-10.5-13.8-13.8-15.7
	c-2.6-1.5-6.2-1.1-9.1-1.1C290.4,6,42.9,6,34.5,6c-2.2,0-4.4,0.2-6.3,1.4c-3.2,2-12.9,13-13.4,15.5c-1,5.9-1.4,12-2,18
	c-2.1,18.5-4.2,37.1-6.3,55.6c-0.2,1.4-0.5,3-0.4,4.5l0.7,19.8c0.1,1.3,0.6,2.6,1.6,3.7c1,1.1,2.4,2.2,4.1,3c1.7,0.9,3.7,1.6,6,2
	c2.3,0.5,4.8,0.7,7.4,0.7h280.8c2.6,0,5.2-0.3,7.4-0.7c2.3-0.5,4.3-1.2,6-2c1.7-0.9,3.1-1.9,4.1-3c1-1.1,1.5-2.4,1.6-3.7L326.3,105z
	"/>
<g>
	<path class="st3" d="M307.1,89.5H25.4c-0.9,0-1.8-0.1-2.7-0.3c-0.8-0.2-1.5-0.4-2.2-0.8c-0.6-0.3-1.1-0.7-1.4-1.1
		c-0.3-0.4-0.5-0.9-0.4-1.3l8.1-76.9c0-0.4,0.3-0.8,0.6-1.2c0.4-0.4,0.9-0.7,1.5-1c0.6-0.3,1.4-0.5,2.2-0.7C32,6.1,32.9,6,33.8,6
		h264.9c0.9,0,1.8,0.1,2.6,0.2c0.8,0.2,1.5,0.4,2.2,0.7c0.6,0.3,1.2,0.6,1.5,1c0.4,0.4,0.6,0.8,0.6,1.2l8.1,76.9
		c0.1,0.5-0.1,0.9-0.4,1.3c-0.3,0.4-0.8,0.8-1.4,1.1c-0.6,0.3-1.3,0.6-2.2,0.8C309,89.4,308.1,89.5,307.1,89.5z"/>
</g>
<g>
	<g>
		<path d="M206.9,137.2v15.2c0,9.8-8,17.8-17.8,17.8h-45.2c-9.8,0-17.8-8-17.8-17.8v-15.2h15.4v15.2c0,1.3,1.1,2.5,2.5,2.5h45.2
			c1.3,0,2.5-1.1,2.5-2.5v-15.2H206.9z"/>
	</g>
</g>
<g>
	<path class="st1" d="M117.9,39.3l-0.6,16h33.1l-0.2,16.3h33.5l-0.2-16.3h33.1l-0.6-16h-32.7l-0.2-15.6h-32.4l-0.2,15.6H117.9
		 M167.1,82.2c-9.9,0-19.4-1-28-2.8c-8.6-1.8-16.2-4.4-22.6-7.6c-6.3-3.2-11.4-7-14.8-11.1c-3.4-4.1-5.1-8.7-4.9-13.4
		c0.2-4.7,2.4-9.1,6.1-13.1c3.7-4,8.9-7.6,15.3-10.5c6.3-3,13.8-5.4,22.1-7c8.2-1.6,17.3-2.6,26.7-2.6c9.5,0,18.5,0.9,26.7,2.6
		c8.3,1.6,15.7,4,22.1,7c6.4,3,11.6,6.5,15.3,10.5c3.7,4,5.9,8.4,6.2,13.1c0.2,4.7-1.5,9.2-4.9,13.4c-3.4,4.2-8.5,7.9-14.8,11.1
		c-6.4,3.2-14,5.8-22.6,7.6C186.5,81.2,177,82.2,167.1,82.2"/>
</g>
</svg>
